<svg width="1950" height="155" viewBox="0 0 1950 155" fill="none" xmlns="http://www.w3.org/2000/svg">
<g clip-path="url(#clip0_1_635)">
<rect width="1948.11" height="73.9542" transform="translate(0.00170898 80.8838) rotate(-2.37956)" fill="url(#paint0_linear_1_635)"/>
<path d="M-7.87171 112.58L-6.19523 112.51L-5.53624 128.369L-9.70794 128.542L-9.96676 122.314L-13.9491 128.455L-13.9783 128.456L-18.4661 122.667L-18.2073 128.895L-22.379 129.069L-23.038 113.21L-21.3615 113.141L-14.2326 122.1L-7.87171 112.58ZM1.20178 124.164L7.21565 123.914L7.37848 127.832L-2.80709 128.255L-3.46001 112.543L0.711689 112.37L1.20178 124.164ZM14.0738 127.769C11.4909 127.876 9.09445 126.833 8.23285 125.131L10.6544 122.55C11.3476 123.488 12.5903 124.022 13.9061 123.968C14.7931 123.931 15.6472 123.573 15.6204 122.93C15.5868 122.121 13.949 121.476 12.3806 120.858C10.3566 120.083 8.59663 118.848 8.4982 116.479C8.3852 113.76 10.8875 111.713 13.8701 111.589C16.2679 111.489 18.1863 112.542 18.8647 114.066L16.5536 116.486C16.0513 115.677 14.8277 115.367 14.0772 115.398C13.2195 115.433 12.6236 115.898 12.6459 116.434C12.6759 117.155 13.7968 117.343 15.5223 117.984C18.0215 118.915 19.7116 120.348 19.808 122.668C19.9323 125.66 17.2221 127.638 14.0738 127.769ZM31.9895 126.809L31.1239 125.01L25.2562 125.254L24.5331 127.119L19.9715 127.309L26.611 111.098L28.5896 111.016L36.5609 126.619L31.9895 126.809ZM26.4453 122.148L29.6715 122.014L27.9086 118.357L26.4453 122.148Z" fill="white"/>
<path d="M67.9506 125.666C63.5157 125.851 59.2371 122.748 59.0322 117.816C58.839 113.167 62.4527 109.433 67.3456 109.23C69.3742 109.175 71.5847 109.971 73.2537 111.367L70.9839 114.546C69.9825 113.709 68.6817 113.187 67.5219 113.235C65.1046 113.336 63.1635 115.262 63.2636 117.669C63.3648 120.106 65.5447 121.812 67.7865 121.719C69.1024 121.664 70.2558 120.991 71.2318 120.043L73.7417 123.112C72.2974 124.539 70.3386 125.567 67.9506 125.666ZM75.5971 124.997L74.9442 109.285L79.1159 109.112L79.7688 124.824L75.5971 124.997ZM92.6057 108.551L92.7677 112.45L89.0053 112.606L89.4962 124.419L85.3148 124.593L84.8239 112.78L81.0518 112.937L80.8898 109.038L92.6057 108.551Z" fill="white"/>
<path d="M47.8739 120.255C46.4509 120.314 45.246 119.281 45.1901 117.936C45.1355 116.62 46.2691 115.469 47.6726 115.411C49.0665 115.353 50.292 116.415 50.3463 117.721C50.4014 119.047 49.2775 120.197 47.8739 120.255Z" fill="white"/>
<path d="M150.38 106.004L152.056 105.934L152.715 121.793L148.544 121.966L148.285 115.738L144.303 121.879L144.273 121.88L139.786 116.091L140.044 122.319L135.873 122.493L135.214 106.634L136.89 106.565L144.019 115.525L150.38 106.004ZM159.453 117.588L165.467 117.338L165.63 121.256L155.445 121.679L154.792 105.967L158.963 105.794L159.453 117.588ZM172.326 121.193C169.743 121.3 167.346 120.257 166.485 118.555L168.906 115.974C169.599 116.912 170.842 117.446 172.158 117.392C173.045 117.355 173.899 116.997 173.872 116.354C173.839 115.545 172.201 114.9 170.632 114.282C168.608 113.507 166.848 112.272 166.75 109.903C166.637 107.184 169.139 105.137 172.122 105.013C174.52 104.913 176.438 105.966 177.116 107.49L174.805 109.91C174.303 109.101 173.079 108.791 172.329 108.822C171.471 108.857 170.875 109.322 170.898 109.858C170.928 110.579 172.048 110.767 173.774 111.408C176.273 112.339 177.963 113.772 178.06 116.092C178.184 119.084 175.474 121.062 172.326 121.193ZM190.241 120.233L189.376 118.434L183.508 118.678L182.785 120.543L178.223 120.733L184.863 104.522L186.841 104.44L194.813 120.043L190.241 120.233ZM184.697 115.572L187.923 115.438L186.16 111.782L184.697 115.572Z" fill="white"/>
<path d="M226.202 119.09C221.767 119.275 217.489 116.172 217.284 111.24C217.091 106.591 220.704 102.857 225.597 102.654C227.626 102.599 229.836 103.395 231.505 104.791L229.236 107.97C228.234 107.133 226.933 106.611 225.774 106.659C223.356 106.76 221.415 108.686 221.515 111.093C221.617 113.53 223.796 115.236 226.038 115.143C227.354 115.088 228.508 114.415 229.484 113.467L231.993 116.536C230.549 117.963 228.59 118.991 226.202 119.09ZM233.849 118.421L233.196 102.709L237.368 102.536L238.02 118.248L233.849 118.421ZM250.857 101.975L251.019 105.874L247.257 106.03L247.748 117.844L243.567 118.017L243.076 106.204L239.304 106.361L239.142 102.462L250.857 101.975Z" fill="white"/>
<path d="M206.126 113.679C204.703 113.739 203.498 112.705 203.442 111.36C203.387 110.044 204.521 108.893 205.924 108.835C207.318 108.777 208.544 109.839 208.598 111.145C208.653 112.471 207.529 113.621 206.126 113.679Z" fill="white"/>
<path d="M308.632 99.4277L310.308 99.3581L310.967 115.216L306.795 115.39L306.537 109.161L302.554 115.302L302.525 115.304L298.037 109.515L298.296 115.743L294.124 115.916L293.465 100.058L295.142 99.9883L302.271 108.948L308.632 99.4277ZM317.705 111.011L323.719 110.761L323.882 114.68L313.696 115.103L313.043 99.3909L317.215 99.2175L317.705 111.011ZM330.577 114.616C327.994 114.724 325.598 113.681 324.736 111.979L327.158 109.398C327.851 110.336 329.094 110.87 330.41 110.815C331.296 110.779 332.151 110.421 332.124 109.778C332.09 108.969 330.452 108.324 328.884 107.706C326.86 106.93 325.1 105.695 325.002 103.327C324.889 100.607 327.391 98.5603 330.374 98.4364C332.771 98.3367 334.69 99.3896 335.368 100.914L333.057 103.334C332.555 102.525 331.331 102.214 330.581 102.245C329.723 102.281 329.127 102.745 329.149 103.281C329.179 104.003 330.3 104.19 332.026 104.831C334.525 105.762 336.215 107.196 336.311 109.516C336.436 112.508 333.725 114.485 330.577 114.616ZM348.493 113.657L347.627 111.857L341.76 112.101L341.037 113.967L336.475 114.156L343.114 97.946L345.093 97.8638L353.064 113.467L348.493 113.657ZM342.949 108.996L346.175 108.862L344.412 105.205L342.949 108.996Z" fill="white"/>
<path d="M384.454 112.514C380.019 112.698 375.741 109.595 375.536 104.663C375.342 100.014 378.956 96.2807 383.849 96.0774C385.878 96.0224 388.088 96.819 389.757 98.2142L387.487 101.394C386.486 100.557 385.185 100.035 384.025 100.083C381.608 100.183 379.667 102.109 379.767 104.517C379.868 106.954 382.048 108.66 384.29 108.566C385.606 108.512 386.759 107.839 387.735 106.89L390.245 109.959C388.801 111.386 386.842 112.415 384.454 112.514ZM392.1 111.845L391.448 96.1326L395.619 95.9593L396.272 111.671L392.1 111.845ZM409.109 95.3987L409.271 99.2975L405.509 99.4538L406 111.267L401.818 111.441L401.327 99.6276L397.555 99.7843L397.393 95.8856L409.109 95.3987Z" fill="white"/>
<path d="M364.377 107.103C362.954 107.162 361.749 106.128 361.694 104.783C361.639 103.467 362.772 102.317 364.176 102.259C365.57 102.201 366.795 103.263 366.85 104.569C366.905 105.895 365.781 107.045 364.377 107.103Z" fill="white"/>
<path d="M466.88 92.8517L468.556 92.782L469.215 108.64L465.043 108.814L464.784 102.585L460.802 108.726L460.773 108.728L456.285 102.939L456.544 109.167L452.372 109.34L451.713 93.4819L453.39 93.4123L460.519 102.372L466.88 92.8517ZM475.953 104.435L481.967 104.185L482.13 108.104L471.944 108.527L471.291 92.8148L475.463 92.6415L475.953 104.435ZM488.825 108.04C486.242 108.148 483.846 107.105 482.984 105.403L485.406 102.822C486.099 103.76 487.341 104.294 488.657 104.239C489.544 104.202 490.398 103.845 490.372 103.201C490.338 102.392 488.7 101.748 487.132 101.129C485.108 100.354 483.348 99.1192 483.249 96.7506C483.136 94.0312 485.639 91.9843 488.621 91.8603C491.019 91.7607 492.937 92.8136 493.616 94.3378L491.305 96.7576C490.803 95.9486 489.579 95.6382 488.828 95.6694C487.971 95.705 487.375 96.1691 487.397 96.7052C487.427 97.4265 488.548 97.6142 490.274 98.2553C492.773 99.1864 494.463 100.62 494.559 102.94C494.684 105.932 491.973 107.909 488.825 108.04ZM506.741 107.081L505.875 105.281L500.007 105.525L499.284 107.391L494.723 107.58L501.362 91.3699L503.341 91.2877L511.312 106.891L506.741 107.081ZM501.197 102.42L504.423 102.286L502.66 98.6291L501.197 102.42Z" fill="white"/>
<path d="M542.702 105.938C538.267 106.122 533.988 103.019 533.783 98.0874C533.59 93.4381 537.204 89.7046 542.097 89.5013C544.125 89.4463 546.336 90.243 548.005 91.6382L545.735 94.8178C544.734 93.9807 543.433 93.4587 542.273 93.5069C539.856 93.6074 537.915 95.5334 538.015 97.9409C538.116 100.378 540.296 102.084 542.538 101.99C543.854 101.936 545.007 101.263 545.983 100.314L548.493 103.383C547.049 104.81 545.09 105.839 542.702 105.938ZM550.348 105.269L549.695 89.5566L553.867 89.3832L554.52 105.095L550.348 105.269ZM567.357 88.8227L567.519 92.7214L563.757 92.8778L564.247 104.691L560.066 104.865L559.575 93.0515L555.803 93.2083L555.641 89.3095L567.357 88.8227Z" fill="white"/>
<path d="M522.625 100.527C521.202 100.586 519.997 99.5524 519.941 98.2073C519.887 96.8914 521.02 95.741 522.424 95.6827C523.818 95.6248 525.043 96.6869 525.098 97.993C525.153 99.3186 524.029 100.469 522.625 100.527Z" fill="white"/>
<path d="M625.131 86.2758L626.808 86.2061L627.467 102.064L623.295 102.238L623.036 96.0094L619.054 102.15L619.025 102.152L614.537 96.3626L614.796 102.591L610.624 102.764L609.965 86.906L611.641 86.8363L618.77 95.7962L625.131 86.2758ZM634.205 97.8593L640.219 97.6094L640.381 101.528L630.196 101.951L629.543 86.2389L633.715 86.0655L634.205 97.8593ZM647.077 101.464C644.494 101.572 642.097 100.529 641.236 98.8267L643.657 96.2461C644.351 97.1839 645.593 97.7181 646.909 97.6634C647.796 97.6265 648.65 97.2688 648.623 96.6255C648.59 95.8165 646.952 95.1718 645.384 94.5535C643.36 93.7784 641.6 92.5432 641.501 90.1747C641.388 87.4553 643.89 85.4083 646.873 85.2844C649.271 85.1848 651.189 86.2376 651.868 87.7619L649.557 90.1817C649.054 89.3727 647.831 89.0622 647.08 89.0934C646.222 89.1291 645.627 89.5932 645.649 90.1293C645.679 90.8506 646.8 91.0383 648.525 91.6794C651.024 92.6105 652.715 94.0439 652.811 96.3636C652.935 99.356 650.225 101.333 647.077 101.464ZM664.992 100.505L664.127 98.7054L658.259 98.9492L657.536 100.815L652.974 101.004L659.614 84.794L661.593 84.7118L669.564 100.315L664.992 100.505ZM659.448 95.8437L662.674 95.7097L660.911 92.0532L659.448 95.8437Z" fill="white"/>
<path d="M700.953 99.362C696.519 99.5463 692.24 96.4434 692.035 91.5115C691.842 86.8622 695.456 83.1287 700.349 82.9254C702.377 82.8704 704.588 83.667 706.257 85.0622L703.987 88.2419C702.985 87.4048 701.685 86.8828 700.525 86.931C698.108 87.0314 696.166 88.9574 696.267 91.3649C696.368 93.8017 698.548 95.5076 700.789 95.4145C702.105 95.3598 703.259 94.687 704.235 93.7384L706.745 96.8073C705.3 98.2343 703.341 99.2628 700.953 99.362ZM708.6 98.6927L707.947 82.9806L712.119 82.8073L712.772 98.5194L708.6 98.6927ZM725.609 82.2467L725.771 86.1455L722.008 86.3019L722.499 98.1152L718.318 98.2889L717.827 86.4756L714.055 86.6324L713.893 82.7336L725.609 82.2467Z" fill="white"/>
<path d="M680.877 93.951C679.454 94.0101 678.249 92.9764 678.193 91.6314C678.138 90.3155 679.272 89.1651 680.676 89.1068C682.069 89.0489 683.295 90.111 683.349 91.4171C683.404 92.7427 682.28 93.8927 680.877 93.951Z" fill="white"/>
<path d="M783.383 79.6993L785.059 79.6297L785.718 95.488L781.547 95.6613L781.288 89.433L777.306 95.5739L777.276 95.5752L772.789 89.7862L773.047 96.0145L768.876 96.1879L768.217 80.3296L769.893 80.2599L777.022 89.2197L783.383 79.6993ZM792.456 91.2829L798.47 91.033L798.633 94.9513L788.448 95.3746L787.795 79.6625L791.966 79.4891L792.456 91.2829ZM805.328 94.8879C802.745 94.9952 800.349 93.9524 799.487 92.2503L801.909 89.6697C802.602 90.6075 803.845 91.1417 805.161 91.087C806.048 91.0501 806.902 90.6924 806.875 90.0491C806.841 89.2401 805.204 88.5954 803.635 87.9771C801.611 87.202 799.851 85.9668 799.753 83.5983C799.64 80.8789 802.142 78.8319 805.125 78.708C807.523 78.6083 809.441 79.6612 810.119 81.1855L807.808 83.6053C807.306 82.7962 806.082 82.4858 805.332 82.517C804.474 82.5527 803.878 83.0168 803.901 83.5529C803.931 84.2742 805.051 84.4619 806.777 85.103C809.276 86.0341 810.966 87.4675 811.063 89.7872C811.187 92.7795 808.477 94.7571 805.328 94.8879ZM823.244 93.9286L822.379 92.129L816.511 92.3728L815.788 94.2384L811.226 94.428L817.866 78.2176L819.844 78.1354L827.816 93.7386L823.244 93.9286ZM817.7 89.2673L820.926 89.1333L819.163 85.4768L817.7 89.2673Z" fill="white"/>
<path d="M859.205 92.7856C854.77 92.9699 850.492 89.867 850.287 84.9351C850.094 80.2858 853.707 76.5523 858.6 76.349C860.629 76.294 862.839 77.0906 864.508 78.4858L862.239 81.6655C861.237 80.8284 859.936 80.3064 858.776 80.3546C856.359 80.455 854.418 82.381 854.518 84.7885C854.619 87.2253 856.799 88.9312 859.041 88.8381C860.357 88.7834 861.51 88.1106 862.486 87.162L864.996 90.2309C863.552 91.6579 861.593 92.6863 859.205 92.7856ZM866.852 92.1163L866.199 76.4042L870.371 76.2309L871.023 91.943L866.852 92.1163ZM883.86 75.6703L884.022 79.5691L880.26 79.7254L880.751 91.5388L876.569 91.7125L876.079 79.8992L872.306 80.0559L872.144 76.1572L883.86 75.6703Z" fill="white"/>
<path d="M839.129 87.3746C837.706 87.4337 836.501 86.4 836.445 85.0549C836.39 83.7391 837.524 82.5887 838.927 82.5304C840.321 82.4724 841.547 83.5346 841.601 84.8407C841.656 86.1663 840.532 87.3163 839.129 87.3746Z" fill="white"/>
<path d="M941.635 73.1236L943.311 73.0539L943.97 88.9122L939.798 89.0856L939.54 82.8573L935.557 88.9982L935.528 88.9994L931.04 83.2105L931.299 89.4388L927.127 89.6121L926.468 73.7538L928.145 73.6842L935.274 82.644L941.635 73.1236ZM950.708 84.7072L956.722 84.4573L956.885 88.3756L946.699 88.7988L946.046 73.0867L950.218 72.9134L950.708 84.7072ZM963.58 88.3121C960.997 88.4195 958.601 87.3767 957.739 85.6745L960.161 83.0939C960.854 84.0317 962.097 84.5659 963.412 84.5112C964.299 84.4744 965.154 84.1167 965.127 83.4734C965.093 82.6644 963.455 82.0197 961.887 81.4014C959.863 80.6263 958.103 79.3911 958.005 77.0226C957.892 74.3032 960.394 72.2562 963.376 72.1322C965.774 72.0326 967.693 73.0855 968.371 74.6097L966.06 77.0296C965.558 76.2205 964.334 75.9101 963.584 75.9413C962.726 75.9769 962.13 76.441 962.152 76.9771C962.182 77.6984 963.303 77.8862 965.029 78.5272C967.528 79.4583 969.218 80.8917 969.314 83.2115C969.439 86.2038 966.728 88.1813 963.58 88.3121ZM981.496 87.3528L980.63 85.5532L974.763 85.7971L974.039 87.6627L969.478 87.8523L976.117 71.6418L978.096 71.5596L986.067 87.1629L981.496 87.3528ZM975.952 82.6916L979.178 82.5575L977.415 78.901L975.952 82.6916Z" fill="white"/>
<path d="M1017.46 86.2098C1013.02 86.3941 1008.74 83.2913 1008.54 78.3593C1008.35 73.71 1011.96 69.9765 1016.85 69.7732C1018.88 69.7182 1021.09 70.5149 1022.76 71.9101L1020.49 75.0898C1019.49 74.2526 1018.19 73.7306 1017.03 73.7788C1014.61 73.8793 1012.67 75.8053 1012.77 78.2128C1012.87 80.6495 1015.05 82.3555 1017.29 82.2623C1018.61 82.2076 1019.76 81.5348 1020.74 80.5862L1023.25 83.6552C1021.8 85.0821 1019.84 86.1106 1017.46 86.2098ZM1025.1 85.5406L1024.45 69.8285L1028.62 69.6551L1029.28 85.3672L1025.1 85.5406ZM1042.11 69.0946L1042.27 72.9933L1038.51 73.1497L1039 84.963L1034.82 85.1368L1034.33 73.3235L1030.56 73.4802L1030.4 69.5814L1042.11 69.0946Z" fill="white"/>
<path d="M997.38 80.7989C995.957 80.858 994.752 79.8243 994.696 78.4792C994.642 77.1634 995.775 76.0129 997.179 75.9546C998.573 75.8967 999.798 76.9588 999.853 78.2649C999.908 79.5905 998.784 80.7405 997.38 80.7989Z" fill="white"/>
<path d="M1099.89 66.5474L1101.56 66.4778L1102.22 82.3361L1098.05 82.5094L1097.79 76.2811L1093.81 82.422L1093.78 82.4232L1089.29 76.6343L1089.55 82.8626L1085.38 83.036L1084.72 67.1777L1086.4 67.108L1093.53 76.0678L1099.89 66.5474ZM1108.96 78.131L1114.97 77.8811L1115.14 81.7994L1104.95 82.2226L1104.3 66.5106L1108.47 66.3372L1108.96 78.131ZM1121.83 81.736C1119.25 81.8433 1116.85 80.8005 1115.99 79.0984L1118.41 76.5177C1119.11 77.4556 1120.35 77.9897 1121.66 77.9351C1122.55 77.8982 1123.41 77.5405 1123.38 76.8972C1123.35 76.0882 1121.71 75.4435 1120.14 74.8252C1118.11 74.0501 1116.35 72.8149 1116.26 70.4464C1116.14 67.727 1118.65 65.68 1121.63 65.5561C1124.03 65.4564 1125.94 66.5093 1126.62 68.0336L1124.31 70.4534C1123.81 69.6443 1122.59 69.3339 1121.84 69.3651C1120.98 69.4007 1120.38 69.8649 1120.4 70.401C1120.43 71.1222 1121.56 71.31 1123.28 71.951C1125.78 72.8821 1127.47 74.3155 1127.57 76.6353C1127.69 79.6276 1124.98 81.6051 1121.83 81.736ZM1139.75 80.7767L1138.88 78.9771L1133.01 79.2209L1132.29 81.0865L1127.73 81.2761L1134.37 65.0657L1136.35 64.9835L1144.32 80.5867L1139.75 80.7767ZM1134.2 76.1154L1137.43 75.9813L1135.67 72.3248L1134.2 76.1154Z" fill="white"/>
<path d="M1175.71 79.6336C1171.27 79.8179 1167 76.7151 1166.79 71.7831C1166.6 67.1338 1170.21 63.4003 1175.1 63.197C1177.13 63.142 1179.34 63.9386 1181.01 65.3338L1178.74 68.5135C1177.74 67.6764 1176.44 67.1544 1175.28 67.2026C1172.86 67.303 1170.92 69.229 1171.02 71.6365C1171.12 74.0733 1173.3 75.7792 1175.54 75.6861C1176.86 75.6314 1178.01 74.9586 1178.99 74.01L1181.5 77.0789C1180.06 78.5059 1178.1 79.5344 1175.71 79.6336ZM1183.36 78.9644L1182.7 63.2523L1186.87 63.0789L1187.53 78.791L1183.36 78.9644ZM1200.36 62.5183L1200.53 66.4171L1196.76 66.5735L1197.25 78.3868L1193.07 78.5605L1192.58 66.7472L1188.81 66.904L1188.65 63.0052L1200.36 62.5183Z" fill="white"/>
<path d="M1155.63 74.2227C1154.21 74.2818 1153 73.2481 1152.95 71.903C1152.89 70.5872 1154.03 69.4368 1155.43 69.3784C1156.82 69.3205 1158.05 70.3827 1158.1 71.6888C1158.16 73.0143 1157.04 74.1644 1155.63 74.2227Z" fill="white"/>
<path d="M1258.13 59.9709L1259.81 59.9013L1260.47 75.7596L1256.3 75.9329L1256.04 69.7046L1252.06 75.8456L1252.03 75.8468L1247.54 70.0578L1247.8 76.2861L1243.63 76.4595L1242.97 60.6012L1244.64 60.5315L1251.77 69.4913L1258.13 59.9709ZM1267.21 71.5545L1273.22 71.3046L1273.38 75.2229L1263.2 75.6462L1262.55 59.9341L1266.72 59.7607L1267.21 71.5545ZM1280.08 75.1595C1277.5 75.2668 1275.1 74.224 1274.24 72.5219L1276.66 69.9413C1277.35 70.8791 1278.6 71.4133 1279.91 71.3586C1280.8 71.3217 1281.65 70.964 1281.63 70.3207C1281.59 69.5117 1279.95 68.867 1278.39 68.2487C1276.36 67.4736 1274.6 66.2384 1274.5 63.8699C1274.39 61.1505 1276.89 59.1035 1279.88 58.9796C1282.27 58.88 1284.19 59.9328 1284.87 61.4571L1282.56 63.8769C1282.06 63.0679 1280.83 62.7574 1280.08 62.7886C1279.23 62.8243 1278.63 63.2884 1278.65 63.8245C1278.68 64.5458 1279.8 64.7335 1281.53 65.3746C1284.03 66.3057 1285.72 67.7391 1285.81 70.0588C1285.94 73.0512 1283.23 75.0287 1280.08 75.1595ZM1298 74.2002L1297.13 72.4006L1291.26 72.6444L1290.54 74.5101L1285.98 74.6996L1292.62 58.4892L1294.6 58.407L1302.57 74.0102L1298 74.2002ZM1292.45 69.5389L1295.68 69.4049L1293.91 65.7484L1292.45 69.5389Z" fill="white"/>
<path d="M1333.96 73.0572C1329.52 73.2415 1325.24 70.1386 1325.04 65.2067C1324.84 60.5574 1328.46 56.8239 1333.35 56.6206C1335.38 56.5656 1337.59 57.3622 1339.26 58.7574L1336.99 61.9371C1335.99 61.1 1334.69 60.578 1333.53 60.6262C1331.11 60.7266 1329.17 62.6526 1329.27 65.0601C1329.37 67.4969 1331.55 69.2028 1333.79 69.1097C1335.11 69.055 1336.26 68.3822 1337.24 67.4336L1339.75 70.5025C1338.3 71.9295 1336.34 72.958 1333.96 73.0572ZM1341.6 72.3879L1340.95 56.6758L1345.12 56.5025L1345.77 72.2146L1341.6 72.3879ZM1358.61 55.9419L1358.77 59.8407L1355.01 59.997L1355.5 71.8104L1351.32 71.9841L1350.83 60.1708L1347.06 60.3276L1346.9 56.4288L1358.61 55.9419Z" fill="white"/>
<path d="M1313.88 67.6462C1312.46 67.7053 1311.25 66.6716 1311.2 65.3265C1311.14 64.0107 1312.27 62.8603 1313.68 62.802C1315.07 62.744 1316.3 63.8062 1316.35 65.1123C1316.41 66.4379 1315.28 67.5879 1313.88 67.6462Z" fill="white"/>
<path d="M1418.32 52.2158L1420 52.1462L1420.66 68.0045L1416.49 68.1778L1416.23 61.9495L1412.25 68.0904L1412.22 68.0916L1407.73 62.3027L1407.99 68.531L1403.82 68.7044L1403.16 52.8461L1404.83 52.7764L1411.96 61.7362L1418.32 52.2158ZM1427.4 63.7994L1433.41 63.5495L1433.57 67.4678L1423.39 67.891L1422.74 52.1789L1426.91 52.0056L1427.4 63.7994ZM1440.27 67.4044C1437.69 67.5117 1435.29 66.4689 1434.43 64.7668L1436.85 62.1861C1437.54 63.1239 1438.79 63.6581 1440.1 63.6035C1440.99 63.5666 1441.84 63.2089 1441.82 62.5656C1441.78 61.7566 1440.14 61.1119 1438.58 60.4936C1436.55 59.7185 1434.79 58.4833 1434.69 56.1148C1434.58 53.3954 1437.08 51.3484 1440.07 51.2245C1442.46 51.1248 1444.38 52.1777 1445.06 53.702L1442.75 56.1218C1442.25 55.3127 1441.02 55.0023 1440.27 55.0335C1439.42 55.0691 1438.82 55.5333 1438.84 56.0694C1438.87 56.7906 1439.99 56.9784 1441.72 57.6194C1444.22 58.5505 1445.91 59.9839 1446 62.3037C1446.13 65.296 1443.42 67.2735 1440.27 67.4044ZM1458.19 66.4451L1457.32 64.6455L1451.45 64.8893L1450.73 66.7549L1446.17 66.9445L1452.81 50.7341L1454.79 50.6519L1462.76 66.2551L1458.19 66.4451ZM1452.64 61.7838L1455.87 61.6497L1454.1 57.9932L1452.64 61.7838Z" fill="white"/>
<path d="M1494.15 65.3021C1489.71 65.4863 1485.43 62.3835 1485.23 57.4515C1485.04 52.8022 1488.65 49.0688 1493.54 48.8654C1495.57 48.8104 1497.78 49.6071 1499.45 51.0023L1497.18 54.182C1496.18 53.3449 1494.88 52.8228 1493.72 52.871C1491.3 52.9715 1489.36 54.8975 1489.46 57.305C1489.56 59.7417 1491.74 61.4477 1493.98 61.3545C1495.3 61.2999 1496.45 60.627 1497.43 59.6785L1499.94 62.7474C1498.49 64.1743 1496.53 65.2028 1494.15 65.3021ZM1501.79 64.6328L1501.14 48.9207L1505.31 48.7474L1505.96 64.4595L1501.79 64.6328ZM1518.8 48.1868L1518.96 52.0856L1515.2 52.2419L1515.69 64.0552L1511.51 64.229L1511.02 52.4157L1507.25 52.5724L1507.09 48.6736L1518.8 48.1868Z" fill="white"/>
<path d="M1474.07 59.8911C1472.65 59.9502 1471.44 58.9165 1471.39 57.5714C1471.33 56.2556 1472.46 55.1052 1473.87 55.0468C1475.26 54.9889 1476.49 56.0511 1476.54 57.3572C1476.6 58.6827 1475.47 59.8328 1474.07 59.8911Z" fill="white"/>
<path d="M1578.51 44.4606L1580.19 44.391L1580.85 60.2493L1576.68 60.4226L1576.42 54.1943L1572.44 60.3352L1572.41 60.3365L1567.92 54.5475L1568.18 60.7758L1564.01 60.9492L1563.35 45.0909L1565.02 45.0212L1572.15 53.981L1578.51 44.4606ZM1587.59 56.0442L1593.6 55.7943L1593.76 59.7126L1583.58 60.1359L1582.93 44.4238L1587.1 44.2504L1587.59 56.0442ZM1600.46 59.6492C1597.88 59.7565 1595.48 58.7137 1594.62 57.0116L1597.04 54.4309C1597.73 55.3688 1598.98 55.9029 1600.29 55.8483C1601.18 55.8114 1602.03 55.4537 1602.01 54.8104C1601.97 54.0014 1600.33 53.3567 1598.77 52.7384C1596.74 51.9633 1594.98 50.7281 1594.88 48.3596C1594.77 45.6402 1597.27 43.5932 1600.26 43.4693C1602.65 43.3696 1604.57 44.4225 1605.25 45.9468L1602.94 48.3666C1602.44 47.5575 1601.21 47.2471 1600.46 47.2783C1599.61 47.314 1599.01 47.7781 1599.03 48.3142C1599.06 49.0354 1600.18 49.2232 1601.91 49.8642C1604.41 50.7954 1606.1 52.2287 1606.19 54.5485C1606.32 57.5408 1603.61 59.5183 1600.46 59.6492ZM1618.38 58.6899L1617.51 56.8903L1611.64 57.1341L1610.92 58.9997L1606.36 59.1893L1613 42.9789L1614.98 42.8967L1622.95 58.4999L1618.38 58.6899ZM1612.83 54.0286L1616.06 53.8946L1614.29 50.238L1612.83 54.0286Z" fill="white"/>
<path d="M1654.34 57.5469C1649.9 57.7312 1645.62 54.6283 1645.42 49.6964C1645.23 45.0471 1648.84 41.3136 1653.73 41.1103C1655.76 41.0553 1657.97 41.8519 1659.64 43.2471L1657.37 46.4268C1656.37 45.5897 1655.07 45.0677 1653.91 45.1159C1651.49 45.2163 1649.55 47.1423 1649.65 49.5498C1649.75 51.9866 1651.93 53.6925 1654.17 53.5994C1655.49 53.5447 1656.64 52.8719 1657.62 51.9233L1660.13 54.9922C1658.68 56.4191 1656.72 57.4476 1654.34 57.5469ZM1661.98 56.8776L1661.33 41.1655L1665.5 40.9922L1666.15 56.7043L1661.98 56.8776ZM1678.99 40.4316L1679.15 44.3304L1675.39 44.4867L1675.88 56.3L1671.7 56.4738L1671.21 44.6605L1667.44 44.8172L1667.28 40.9185L1678.99 40.4316Z" fill="white"/>
<path d="M1634.26 52.1359C1632.84 52.195 1631.63 51.1613 1631.58 49.8162C1631.52 48.5004 1632.66 47.35 1634.06 47.2917C1635.45 47.2337 1636.68 48.2959 1636.73 49.602C1636.79 50.9276 1635.66 52.0776 1634.26 52.1359Z" fill="white"/>
<path d="M1738.66 38.7051L1740.34 38.6354L1741 54.4937L1736.83 54.6671L1736.57 48.4388L1732.59 54.5797L1732.56 54.5809L1728.07 48.792L1728.33 55.0203L1724.16 55.1936L1723.5 39.3353L1725.17 39.2656L1732.3 48.2255L1738.66 38.7051ZM1747.74 50.2887L1753.75 50.0388L1753.91 53.957L1743.73 54.3803L1743.08 38.6682L1747.25 38.4949L1747.74 50.2887ZM1760.61 53.8936C1758.03 54.001 1755.63 52.9582 1754.77 51.256L1757.19 48.6754C1757.88 49.6132 1759.13 50.1474 1760.44 50.0927C1761.33 50.0559 1762.18 49.6982 1762.16 49.0549C1762.12 48.2459 1760.48 47.6012 1758.92 46.9829C1756.89 46.2078 1755.13 44.9726 1755.03 42.604C1754.92 39.8846 1757.42 37.8377 1760.41 37.7137C1762.8 37.6141 1764.72 38.667 1765.4 40.1912L1763.09 42.611C1762.59 41.802 1761.36 41.4916 1760.61 41.5228C1759.76 41.5584 1759.16 42.0225 1759.18 42.5586C1759.21 43.2799 1760.33 43.4676 1762.06 44.1087C1764.56 45.0398 1766.25 46.4732 1766.34 48.793C1766.47 51.7853 1763.76 53.7628 1760.61 53.8936ZM1778.53 52.9343L1777.66 51.1347L1771.79 51.3785L1771.07 53.2442L1766.51 53.4337L1773.15 37.2233L1775.13 37.1411L1783.1 52.7444L1778.53 52.9343ZM1772.98 48.2731L1776.21 48.139L1774.44 44.4825L1772.98 48.2731Z" fill="white"/>
<path d="M1814.49 51.7913C1810.05 51.9756 1805.77 48.8728 1805.57 43.9408C1805.37 39.2915 1808.99 35.558 1813.88 35.3547C1815.91 35.2997 1818.12 36.0963 1819.79 37.4916L1817.52 40.6712C1816.52 39.8341 1815.22 39.3121 1814.06 39.3603C1811.64 39.4607 1809.7 41.3868 1809.8 43.7943C1809.9 46.231 1812.08 47.937 1814.32 47.8438C1815.64 47.7891 1816.79 47.1163 1817.77 46.1677L1820.28 49.2366C1818.83 50.6636 1816.87 51.6921 1814.49 51.7913ZM1822.13 51.1221L1821.48 35.41L1825.65 35.2366L1826.3 50.9487L1822.13 51.1221ZM1839.14 34.676L1839.3 38.5748L1835.54 38.7312L1836.03 50.5445L1831.85 50.7182L1831.36 38.9049L1827.59 39.0617L1827.43 35.1629L1839.14 34.676Z" fill="white"/>
<path d="M1794.41 46.3803C1792.99 46.4395 1791.78 45.4058 1791.73 44.0607C1791.67 42.7448 1792.8 41.5944 1794.21 41.5361C1795.6 41.4782 1796.83 42.5403 1796.88 43.8464C1796.94 45.172 1795.81 46.322 1794.41 46.3803Z" fill="white"/>
<path d="M1897.85 30.9296L1899.53 30.86L1900.19 46.7183L1896.02 46.8916L1895.76 40.6633L1891.78 46.8042L1891.75 46.8054L1887.26 41.0165L1887.52 47.2448L1883.35 47.4182L1882.69 31.5599L1884.36 31.4902L1891.49 40.45L1897.85 30.9296ZM1906.93 42.5132L1912.94 42.2633L1913.1 46.1816L1902.92 46.6049L1902.27 30.8928L1906.44 30.7194L1906.93 42.5132ZM1919.8 46.1182C1917.22 46.2255 1914.82 45.1827 1913.96 43.4806L1916.38 40.8999C1917.07 41.8378 1918.32 42.3719 1919.63 42.3173C1920.52 42.2804 1921.37 41.9227 1921.35 41.2794C1921.31 40.4704 1919.67 39.8257 1918.11 39.2074C1916.08 38.4323 1914.32 37.1971 1914.22 34.8286C1914.11 32.1092 1916.61 30.0622 1919.6 29.9383C1921.99 29.8386 1923.91 30.8915 1924.59 32.4158L1922.28 34.8356C1921.78 34.0265 1920.55 33.7161 1919.8 33.7473C1918.95 33.7829 1918.35 34.2471 1918.37 34.7832C1918.4 35.5044 1919.52 35.6922 1921.25 36.3332C1923.75 37.2644 1925.44 38.6977 1925.53 41.0175C1925.66 44.0098 1922.95 45.9873 1919.8 46.1182ZM1937.72 45.1589L1936.85 43.3593L1930.98 43.6031L1930.26 45.4687L1925.7 45.6583L1932.34 29.4479L1934.32 29.3657L1942.29 44.9689L1937.72 45.1589ZM1932.17 40.4976L1935.4 40.3635L1933.63 36.707L1932.17 40.4976Z" fill="white"/>
</g>
<defs>
<linearGradient id="paint0_linear_1_635" x1="1948.11" y1="73.9542" x2="-1.78549e-07" y2="4.70336e-06" gradientUnits="userSpaceOnUse">
<stop stop-color="#0F0063"/>
<stop offset="0.433106" stop-color="#170099"/>
<stop offset="1" stop-color="#080033"/>
</linearGradient>
<clipPath id="clip0_1_635">
<rect width="1948.11" height="73.9542" fill="white" transform="translate(0.00170898 80.8838) rotate(-2.37956)"/>
</clipPath>
</defs>
</svg>
