<svg width="1950" height="152" viewBox="0 0 1950 152" fill="none" xmlns="http://www.w3.org/2000/svg">
<g clip-path="url(#clip0_1_688)">
<rect width="1948.11" height="73.9542" transform="translate(2.91968 0.982422) rotate(2.26266)" fill="url(#paint0_linear_1_688)"/>
<path d="M-7.49318 31.9375L-5.81656 32.0038L-6.4432 47.8634L-10.6152 47.6985L-10.3691 41.4697L-14.8354 47.2682L-14.8646 47.267L-18.8692 41.1339L-19.1153 47.3627L-23.2873 47.1978L-22.6607 31.3382L-20.9841 31.4045L-14.6037 40.9119L-7.49318 31.9375ZM0.613051 44.2175L6.62742 44.4551L6.47259 48.3737L-3.71382 47.9712L-3.09296 32.2578L1.07908 32.4227L0.613051 44.2175ZM13.1511 48.8524C10.5679 48.7503 8.26378 47.517 7.54277 45.7507L10.1653 43.3745C10.7802 44.3653 11.9756 44.9984 13.2915 45.0503C14.1786 45.0854 15.0589 44.798 15.0843 44.1546C15.1162 43.3456 13.536 42.5704 12.0228 41.8272C10.0681 40.8909 8.41389 39.5173 8.50748 37.1486C8.61494 34.4289 11.2747 32.5912 14.2576 32.7091C16.6555 32.8038 18.4824 34.0085 19.0353 35.5826L16.5359 37.8075C16.1007 36.9604 14.9063 36.552 14.1557 36.5224C13.2979 36.4885 12.6665 36.9028 12.6453 37.439C12.6168 38.1603 13.7188 38.4382 15.3868 39.2168C17.8024 40.3471 19.3709 41.9126 19.2793 44.2325C19.161 47.2251 16.2996 48.9768 13.1511 48.8524ZM31.0857 49.3462L30.3685 47.4824L24.5004 47.2506L23.6287 49.0516L19.0667 48.8713L26.9963 33.2514L28.9751 33.3296L35.6574 49.5268L31.0857 49.3462ZM25.9369 44.2515L29.1634 44.379L27.7021 40.5918L25.9369 44.2515Z" fill="white"/>
<path d="M67.0212 51.1174C62.586 50.9421 58.5726 47.5032 58.7675 42.5708C58.9512 37.9212 62.8552 34.4924 67.7486 34.6857C69.775 34.7951 71.9137 35.768 73.4643 37.2937L70.9446 40.2793C70.0143 39.3639 68.76 38.7383 67.6 38.6924C65.1826 38.5969 63.092 40.3595 62.9969 42.7672C62.9006 45.2042 64.9352 47.081 67.1772 47.1695C68.4932 47.2215 69.6973 46.6443 70.7469 45.7778L73.0002 49.0398C71.4451 50.3452 69.4095 51.2117 67.0212 51.1174ZM74.6969 51.0692L75.3177 35.3558L79.4898 35.5206L78.8689 51.234L74.6969 51.0692ZM92.9807 36.0537L92.8266 39.9528L89.064 39.8041L88.5972 51.6184L84.4154 51.4532L84.8822 39.6389L81.1098 39.4898L81.2639 35.5907L92.9807 36.0537Z" fill="white"/>
<path d="M47.4483 44.0992C46.0252 44.043 44.9079 42.9152 44.9611 41.57C45.0131 40.254 46.2361 39.1991 47.6397 39.2546C49.0337 39.3097 50.1692 40.4675 50.1176 41.7737C50.0653 43.0994 48.852 44.1547 47.4483 44.0992Z" fill="white"/>
<path d="M150.771 38.191L152.448 38.2572L151.821 54.1169L147.649 53.952L147.896 47.7232L143.429 53.5217L143.4 53.5205L139.395 47.3873L139.149 53.6162L134.977 53.4513L135.604 37.5917L137.281 37.658L143.661 47.1654L150.771 38.191ZM158.878 50.4709L164.892 50.7086L164.737 54.6272L154.551 54.2247L155.172 38.5113L159.344 38.6761L158.878 50.4709ZM171.416 55.1058C168.833 55.0038 166.528 53.7705 165.807 52.0042L168.43 49.628C169.045 50.6188 170.24 51.2518 171.556 51.3038C172.443 51.3389 173.324 51.0515 173.349 50.4081C173.381 49.5991 171.801 48.8239 170.287 48.0807C168.333 47.1444 166.679 45.7708 166.772 43.402C166.88 40.6824 169.539 38.8447 172.522 38.9625C174.92 39.0573 176.747 40.262 177.3 41.8361L174.801 44.061C174.365 43.2139 173.171 42.8055 172.42 42.7758C171.563 42.7419 170.931 43.1563 170.91 43.6925C170.881 44.4138 171.983 44.6916 173.651 45.4702C176.067 46.6006 177.636 48.166 177.544 50.486C177.426 53.4786 174.564 55.2302 171.416 55.1058ZM189.35 55.5997L188.633 53.7359L182.765 53.504L181.893 55.305L177.331 55.1248L185.261 39.5049L187.24 39.5831L193.922 55.7803L189.35 55.5997ZM184.202 50.505L187.428 50.6325L185.967 46.8453L184.202 50.505Z" fill="white"/>
<path d="M225.286 57.3709C220.851 57.1956 216.837 53.7567 217.032 48.8243C217.216 44.1746 221.12 40.7459 226.013 40.9392C228.04 41.0486 230.178 42.0215 231.729 43.5472L229.209 46.5328C228.279 45.6173 227.025 44.9918 225.865 44.9459C223.447 44.8504 221.357 46.613 221.262 49.0207C221.165 51.4577 223.2 53.3344 225.442 53.423C226.758 53.475 227.962 52.8978 229.012 52.0313L231.265 55.2933C229.71 56.5986 227.674 57.4652 225.286 57.3709ZM232.962 57.3227L233.582 41.6093L237.754 41.7741L237.134 57.4875L232.962 57.3227ZM251.245 42.3072L251.091 46.2063L247.329 46.0576L246.862 57.8719L242.68 57.7067L243.147 45.8924L239.374 45.7433L239.528 41.8442L251.245 42.3072Z" fill="white"/>
<path d="M205.713 50.3527C204.29 50.2965 203.173 49.1687 203.226 47.8235C203.278 46.5075 204.501 45.4526 205.904 45.5081C207.298 45.5632 208.434 46.721 208.382 48.0272C208.33 49.3529 207.117 50.4082 205.713 50.3527Z" fill="white"/>
<path d="M309.036 44.444L310.713 44.5102L310.086 60.3698L305.914 60.205L306.16 53.9762L301.694 59.7747L301.665 59.7735L297.66 53.6403L297.414 59.8692L293.242 59.7043L293.869 43.8447L295.545 43.9109L301.926 53.4183L309.036 44.444ZM317.143 56.7239L323.157 56.9616L323.002 60.8802L312.816 60.4777L313.437 44.7643L317.609 44.9291L317.143 56.7239ZM329.681 61.3588C327.097 61.2568 324.793 60.0235 324.072 58.2572L326.695 55.881C327.31 56.8718 328.505 57.5048 329.821 57.5568C330.708 57.5919 331.588 57.3045 331.614 56.6611C331.646 55.852 330.066 55.0769 328.552 54.3337C326.598 53.3973 324.943 52.0237 325.037 49.655C325.144 46.9354 327.804 45.0977 330.787 45.2155C333.185 45.3103 335.012 46.515 335.565 48.0891L333.065 50.314C332.63 49.4669 331.436 49.0585 330.685 49.0288C329.827 48.9949 329.196 49.4093 329.175 49.9454C329.146 50.6668 330.248 50.9446 331.916 51.7232C334.332 52.8536 335.9 54.419 335.809 56.739C335.691 59.7316 332.829 61.4832 329.681 61.3588ZM347.615 61.8527L346.898 59.9889L341.03 59.757L340.158 61.558L335.596 61.3778L343.526 45.7579L345.505 45.8361L352.187 62.0333L347.615 61.8527ZM342.466 56.758L345.693 56.8855L344.232 53.0983L342.466 56.758Z" fill="white"/>
<path d="M383.551 63.6239C379.116 63.4486 375.102 60.0097 375.297 55.0773C375.481 50.4276 379.385 46.9989 384.278 47.1922C386.305 47.3016 388.443 48.2745 389.994 49.8002L387.474 52.7858C386.544 51.8703 385.29 51.2448 384.13 51.1989C381.712 51.1034 379.622 52.866 379.526 55.2737C379.43 57.7106 381.465 59.5874 383.707 59.676C385.023 59.728 386.227 59.1507 387.276 58.2843L389.53 61.5463C387.975 62.8516 385.939 63.7182 383.551 63.6239ZM391.226 63.5757L391.847 47.8623L396.019 48.0271L395.398 63.7405L391.226 63.5757ZM409.51 48.5602L409.356 52.4593L405.594 52.3106L405.127 64.1249L400.945 63.9597L401.412 52.1454L397.639 51.9963L397.793 48.0972L409.51 48.5602Z" fill="white"/>
<path d="M363.978 56.6057C362.555 56.5495 361.437 55.4217 361.491 54.0765C361.543 52.7605 362.766 51.7056 364.169 51.7611C365.563 51.8162 366.699 52.974 366.647 54.2802C366.595 55.6059 365.382 56.6612 363.978 56.6057Z" fill="white"/>
<path d="M467.297 50.697L468.974 50.7633L468.347 66.6229L464.175 66.4581L464.421 60.2292L459.955 66.0277L459.926 66.0266L455.921 59.8934L455.675 66.1222L451.503 65.9574L452.13 50.0977L453.806 50.164L460.187 59.6714L467.297 50.697ZM475.404 62.977L481.418 63.2146L481.263 67.1332L471.077 66.7307L471.698 51.0173L475.87 51.1822L475.404 62.977ZM487.942 67.6119C485.358 67.5098 483.054 66.2765 482.333 64.5102L484.956 62.134C485.571 63.1249 486.766 63.7579 488.082 63.8099C488.969 63.8449 489.849 63.5575 489.875 62.9142C489.907 62.1051 488.327 61.33 486.813 60.5868C484.859 59.6504 483.204 58.2768 483.298 55.9081C483.405 53.1885 486.065 51.3507 489.048 51.4686C491.446 51.5633 493.273 52.768 493.826 54.3422L491.326 56.567C490.891 55.72 489.697 55.3115 488.946 55.2819C488.088 55.248 487.457 55.6624 487.436 56.1985C487.407 56.9198 488.509 57.1977 490.177 57.9763C492.593 59.1066 494.161 60.6721 494.07 62.992C493.952 65.9846 491.09 67.7363 487.942 67.6119ZM505.876 68.1057L505.159 66.2419L499.291 66.0101L498.419 67.8111L493.857 67.6308L501.787 52.011L503.766 52.0891L510.448 68.2864L505.876 68.1057ZM500.727 63.011L503.954 63.1385L502.493 59.3513L500.727 63.011Z" fill="white"/>
<path d="M541.812 69.8769C537.377 69.7017 533.363 66.2627 533.558 61.3304C533.742 56.6807 537.646 53.2519 542.539 53.4453C544.565 53.5546 546.704 54.5275 548.255 56.0533L545.735 59.0388C544.805 58.1234 543.551 57.4978 542.391 57.452C539.973 57.3565 537.883 59.1191 537.787 61.5268C537.691 63.9637 539.726 65.8405 541.968 65.9291C543.284 65.9811 544.488 65.4038 545.537 64.5373L547.791 67.7993C546.236 69.1047 544.2 69.9713 541.812 69.8769ZM549.487 69.8287L550.108 54.1153L554.28 54.2802L553.659 69.9936L549.487 69.8287ZM567.771 54.8132L567.617 58.7123L563.854 58.5636L563.388 70.3779L559.206 70.2127L559.673 58.3984L555.9 58.2494L556.054 54.3503L567.771 54.8132Z" fill="white"/>
<path d="M522.239 62.8588C520.816 62.8025 519.698 61.6747 519.752 60.3295C519.804 59.0136 521.027 57.9587 522.43 58.0141C523.824 58.0692 524.96 59.2271 524.908 60.5333C524.856 61.859 523.643 62.9142 522.239 62.8588Z" fill="white"/>
<path d="M625.562 56.9505L627.239 57.0168L626.612 72.8764L622.44 72.7115L622.686 66.4827L618.22 72.2812L618.191 72.28L614.186 66.1469L613.94 72.3757L609.768 72.2108L610.394 56.3512L612.071 56.4175L618.451 65.9249L625.562 56.9505ZM633.668 69.2305L639.683 69.4681L639.528 73.3867L629.341 72.9842L629.962 57.2708L634.134 57.4357L633.668 69.2305ZM646.206 73.8654C643.623 73.7633 641.319 72.53 640.598 70.7637L643.22 68.3875C643.835 69.3783 645.031 70.0114 646.347 70.0633C647.234 70.0984 648.114 69.811 648.139 69.1676C648.171 68.3586 646.591 67.5834 645.078 66.8402C643.123 65.9039 641.469 64.5303 641.563 62.1616C641.67 59.4419 644.33 57.6042 647.313 57.7221C649.711 57.8168 651.538 59.0215 652.09 60.5956L649.591 62.8205C649.156 61.9734 647.961 61.565 647.211 61.5354C646.353 61.5015 645.722 61.9158 645.7 62.452C645.672 63.1733 646.774 63.4512 648.442 64.2298C650.858 65.3601 652.426 66.9256 652.334 69.2455C652.216 72.2381 649.355 73.9898 646.206 73.8654ZM664.141 74.3592L663.424 72.4954L657.556 72.2636L656.684 74.0646L652.122 73.8843L660.052 58.2644L662.03 58.3426L668.713 74.5398L664.141 74.3592ZM658.992 69.2645L662.219 69.392L660.757 65.6048L658.992 69.2645Z" fill="white"/>
<path d="M700.076 76.1304C695.641 75.9551 691.628 72.5162 691.823 67.5838C692.006 62.9342 695.91 59.5054 700.804 59.6987C702.83 59.8081 704.969 60.781 706.519 62.3067L704 65.2923C703.069 64.3769 701.815 63.7513 700.655 63.7054C698.238 63.6099 696.147 65.3725 696.052 67.7802C695.956 70.2172 697.99 72.094 700.232 72.1825C701.548 72.2345 702.752 71.6573 703.802 70.7908L706.055 74.0528C704.5 75.3582 702.465 76.2247 700.076 76.1304ZM707.752 76.0822L708.373 60.3688L712.545 60.5336L711.924 76.247L707.752 76.0822ZM726.036 61.0667L725.882 64.9658L722.119 64.8171L721.652 76.6314L717.471 76.4662L717.937 64.6519L714.165 64.5028L714.319 60.6037L726.036 61.0667Z" fill="white"/>
<path d="M680.503 69.1122C679.08 69.056 677.963 67.9282 678.016 66.583C678.068 65.267 679.291 64.2121 680.695 64.2676C682.089 64.3227 683.224 65.4805 683.173 66.7867C683.12 68.1124 681.907 69.1677 680.503 69.1122Z" fill="white"/>
<path d="M783.827 63.2035L785.504 63.2698L784.877 79.1294L780.705 78.9645L780.951 72.7357L776.485 78.5342L776.455 78.533L772.451 72.3999L772.205 78.6287L768.033 78.4638L768.659 62.6042L770.336 62.6705L776.716 72.1779L783.827 63.2035ZM791.933 75.4835L797.947 75.7211L797.793 79.6397L787.606 79.2372L788.227 63.5238L792.399 63.6887L791.933 75.4835ZM804.471 80.1184C801.888 80.0163 799.584 78.783 798.863 77.0167L801.485 74.6405C802.1 75.6313 803.296 76.2643 804.612 76.3163C805.499 76.3514 806.379 76.064 806.404 75.4206C806.436 74.6116 804.856 73.8364 803.343 73.0932C801.388 72.1569 799.734 70.7833 799.828 68.4146C799.935 65.6949 802.595 63.8572 805.578 63.975C807.976 64.0698 809.802 65.2745 810.355 66.8486L807.856 69.0735C807.421 68.2264 806.226 67.818 805.476 67.7883C804.618 67.7545 803.987 68.1688 803.965 68.705C803.937 69.4263 805.039 69.7042 806.707 70.4828C809.122 71.6131 810.691 73.1786 810.599 75.4985C810.481 78.4911 807.62 80.2428 804.471 80.1184ZM822.406 80.6122L821.689 78.7484L815.82 78.5166L814.949 80.3175L810.387 80.1373L818.316 64.5174L820.295 64.5956L826.977 80.7928L822.406 80.6122ZM817.257 75.5175L820.483 75.645L819.022 71.8578L817.257 75.5175Z" fill="white"/>
<path d="M858.341 82.3834C853.906 82.2081 849.893 78.7692 850.088 73.8368C850.271 69.1871 854.175 65.7584 859.069 65.9517C861.095 66.0611 863.234 67.034 864.784 68.5597L862.265 71.5453C861.334 70.6298 860.08 70.0043 858.92 69.9584C856.503 69.8629 854.412 71.6255 854.317 74.0332C854.221 76.4702 856.255 78.3469 858.497 78.4355C859.813 78.4875 861.017 77.9103 862.067 77.0438L864.32 80.3058C862.765 81.6112 860.73 82.4777 858.341 82.3834ZM866.017 82.3352L866.638 66.6218L870.81 66.7866L870.189 82.5L866.017 82.3352ZM884.301 67.3197L884.147 71.2188L880.384 71.0701L879.917 82.8844L875.735 82.7192L876.202 70.9049L872.43 70.7558L872.584 66.8567L884.301 67.3197Z" fill="white"/>
<path d="M838.768 75.3652C837.345 75.309 836.228 74.1812 836.281 72.836C836.333 71.52 837.556 70.4651 838.96 70.5206C840.354 70.5757 841.489 71.7335 841.438 73.0397C841.385 74.3654 840.172 75.4207 838.768 75.3652Z" fill="white"/>
<path d="M942.092 69.4572L943.768 69.5234L943.142 85.383L938.969 85.2182L939.216 78.9894L934.749 84.7878L934.72 84.7867L930.716 78.6535L930.469 84.8823L926.297 84.7175L926.924 68.8579L928.601 68.9241L934.981 78.4315L942.092 69.4572ZM950.198 81.7371L956.212 81.9747L956.057 85.8934L945.871 85.4909L946.492 69.7775L950.664 69.9423L950.198 81.7371ZM962.736 86.372C960.153 86.2699 957.848 85.0366 957.127 83.2703L959.75 80.8942C960.365 81.885 961.56 82.518 962.876 82.57C963.763 82.605 964.644 82.3176 964.669 81.6743C964.701 80.8652 963.121 80.0901 961.608 79.3469C959.653 78.4105 957.999 77.0369 958.092 74.6682C958.2 71.9486 960.859 70.1109 963.842 70.2287C966.24 70.3235 968.067 71.5281 968.62 73.1023L966.121 75.3271C965.685 74.4801 964.491 74.0717 963.74 74.042C962.883 74.0081 962.251 74.4225 962.23 74.9586C962.201 75.68 963.303 75.9578 964.971 76.7364C967.387 77.8667 968.956 79.4322 968.864 81.7522C968.746 84.7447 965.884 86.4964 962.736 86.372ZM980.67 86.8658L979.953 85.0021L974.085 84.7702L973.213 86.5712L968.651 86.391L976.581 70.7711L978.56 70.8493L985.242 87.0465L980.67 86.8658ZM975.522 81.7712L978.748 81.8986L977.287 78.1114L975.522 81.7712Z" fill="white"/>
<path d="M1016.61 88.637C1012.17 88.4618 1008.16 85.0229 1008.35 80.0905C1008.54 75.4408 1012.44 72.012 1017.33 72.2054C1019.36 72.3147 1021.5 73.2877 1023.05 74.8134L1020.53 77.7989C1019.6 76.8835 1018.34 76.2579 1017.18 76.2121C1014.77 76.1166 1012.68 77.8792 1012.58 80.2869C1012.49 82.7238 1014.52 84.6006 1016.76 84.6892C1018.08 84.7412 1019.28 84.1639 1020.33 83.2974L1022.58 86.5594C1021.03 87.8648 1018.99 88.7314 1016.61 88.637ZM1024.28 88.5888L1024.9 72.8754L1029.07 73.0403L1028.45 88.7537L1024.28 88.5888ZM1042.57 73.5733L1042.41 77.4724L1038.65 77.3238L1038.18 89.1381L1034 88.9728L1034.47 77.1585L1030.69 77.0095L1030.85 73.1104L1042.57 73.5733Z" fill="white"/>
<path d="M997.033 81.6189C995.61 81.5627 994.493 80.4348 994.546 79.0896C994.598 77.7737 995.821 76.7188 997.224 76.7743C998.618 76.8293 999.754 77.9872 999.702 79.2934C999.65 80.6191 998.437 81.6744 997.033 81.6189Z" fill="white"/>
<path d="M1100.36 75.7104L1102.03 75.7767L1101.41 91.6363L1097.23 91.4714L1097.48 85.2426L1093.01 91.0411L1092.99 91.0399L1088.98 84.9068L1088.73 91.1356L1084.56 90.9707L1085.19 75.1111L1086.87 75.1774L1093.25 84.6848L1100.36 75.7104ZM1108.46 87.9903L1114.48 88.228L1114.32 92.1466L1104.14 91.7441L1104.76 76.0307L1108.93 76.1956L1108.46 87.9903ZM1121 92.6252C1118.42 92.5232 1116.11 91.2899 1115.39 89.5236L1118.02 87.1474C1118.63 88.1382 1119.83 88.7712 1121.14 88.8232C1122.03 88.8583 1122.91 88.5709 1122.93 87.9275C1122.97 87.1185 1121.39 86.3433 1119.87 85.6001C1117.92 84.6638 1116.26 83.2902 1116.36 80.9215C1116.46 78.2018 1119.12 76.3641 1122.11 76.4819C1124.51 76.5767 1126.33 77.7814 1126.89 79.3555L1124.39 81.5804C1123.95 80.7333 1122.76 80.3249 1122.01 80.2952C1121.15 80.2613 1120.52 80.6757 1120.5 81.2119C1120.47 81.9332 1121.57 82.211 1123.24 82.9897C1125.65 84.12 1127.22 85.6854 1127.13 88.0054C1127.01 90.998 1124.15 92.7497 1121 92.6252ZM1138.94 93.1191L1138.22 91.2553L1132.35 91.0234L1131.48 92.8244L1126.92 92.6442L1134.85 77.0243L1136.82 77.1025L1143.51 93.2997L1138.94 93.1191ZM1133.79 88.0244L1137.01 88.1519L1135.55 84.3647L1133.79 88.0244Z" fill="white"/>
<path d="M1174.87 94.8902C1170.44 94.715 1166.42 91.276 1166.62 86.3437C1166.8 81.694 1170.71 78.2652 1175.6 78.4586C1177.62 78.5679 1179.76 79.5408 1181.31 81.0666L1178.79 84.0521C1177.86 83.1367 1176.61 82.5111 1175.45 82.4653C1173.03 82.3698 1170.94 84.1324 1170.85 86.5401C1170.75 88.977 1172.79 90.8538 1175.03 90.9424C1176.34 90.9944 1177.55 90.4171 1178.6 89.5506L1180.85 92.8126C1179.29 94.118 1177.26 94.9846 1174.87 94.8902ZM1182.55 94.842L1183.17 79.1286L1187.34 79.2935L1186.72 95.0069L1182.55 94.842ZM1200.83 79.8265L1200.68 83.7256L1196.91 83.5769L1196.45 95.3912L1192.27 95.226L1192.73 83.4117L1188.96 83.2627L1189.11 79.3636L1200.83 79.8265Z" fill="white"/>
<path d="M1155.3 87.8721C1153.88 87.8159 1152.76 86.6881 1152.81 85.3429C1152.86 84.0269 1154.09 82.972 1155.49 83.0275C1156.88 83.0826 1158.02 84.2404 1157.97 85.5466C1157.92 86.8723 1156.7 87.9276 1155.3 87.8721Z" fill="white"/>
<path d="M1258.62 81.963L1260.29 82.0293L1259.67 97.8889L1255.5 97.724L1255.74 91.4952L1251.28 97.2937L1251.25 97.2925L1247.24 91.1594L1247 97.3882L1242.82 97.2234L1243.45 81.3637L1245.13 81.43L1251.51 90.9374L1258.62 81.963ZM1266.72 94.243L1272.74 94.4806L1272.58 98.3992L1262.4 97.9967L1263.02 82.2833L1267.19 82.4482L1266.72 94.243ZM1279.26 98.8779C1276.68 98.7758 1274.37 97.5425 1273.65 95.7762L1276.28 93.4C1276.89 94.3909 1278.09 95.0239 1279.4 95.0759C1280.29 95.1109 1281.17 94.8235 1281.19 94.1802C1281.23 93.3711 1279.65 92.596 1278.13 91.8528C1276.18 90.9164 1274.52 89.5428 1274.62 87.1741C1274.73 84.4545 1277.39 82.6167 1280.37 82.7346C1282.77 82.8293 1284.59 84.034 1285.15 85.6082L1282.65 87.833C1282.21 86.9859 1281.02 86.5775 1280.27 86.5479C1279.41 86.514 1278.78 86.9284 1278.76 87.4645C1278.73 88.1858 1279.83 88.4637 1281.5 89.2423C1283.91 90.3726 1285.48 91.9381 1285.39 94.258C1285.27 97.2506 1282.41 99.0023 1279.26 98.8779ZM1297.2 99.3717L1296.48 97.5079L1290.61 97.2761L1289.74 99.0771L1285.18 98.8968L1293.11 83.2769L1295.09 83.3551L1301.77 99.5523L1297.2 99.3717ZM1292.05 94.277L1295.27 94.4045L1293.81 90.6173L1292.05 94.277Z" fill="white"/>
<path d="M1333.13 101.143C1328.7 100.968 1324.68 97.5287 1324.88 92.5963C1325.06 87.9467 1328.97 84.5179 1333.86 84.7112C1335.89 84.8206 1338.02 85.7935 1339.57 87.3192L1337.06 90.3048C1336.12 89.3894 1334.87 88.7638 1333.71 88.718C1331.29 88.6224 1329.2 90.385 1329.11 92.7927C1329.01 95.2297 1331.05 97.1065 1333.29 97.1951C1334.6 97.247 1335.81 96.6698 1336.86 95.8033L1339.11 99.0653C1337.56 100.371 1335.52 101.237 1333.13 101.143ZM1340.81 101.095L1341.43 85.3813L1345.6 85.5461L1344.98 101.26L1340.81 101.095ZM1359.09 86.0792L1358.94 89.9783L1355.17 89.8296L1354.71 101.644L1350.53 101.479L1350.99 89.6644L1347.22 89.5154L1347.37 85.6162L1359.09 86.0792Z" fill="white"/>
<path d="M1313.56 94.1248C1312.14 94.0685 1311.02 92.9407 1311.07 91.5955C1311.12 90.2796 1312.35 89.2247 1313.75 89.2801C1315.14 89.3352 1316.28 90.493 1316.23 91.7992C1316.18 93.1249 1314.96 94.1802 1313.56 94.1248Z" fill="white"/>
<path d="M1418.91 87.1981L1420.59 87.2643L1419.96 103.124L1415.79 102.959L1416.03 96.7303L1411.57 102.529L1411.54 102.528L1407.53 96.3944L1407.29 102.623L1403.12 102.458L1403.74 86.5988L1405.42 86.665L1411.8 96.1724L1418.91 87.1981ZM1427.02 99.478L1433.03 99.7157L1432.88 103.634L1422.69 103.232L1423.31 87.5184L1427.48 87.6832L1427.02 99.478ZM1439.55 104.113C1436.97 104.011 1434.67 102.778 1433.95 101.011L1436.57 98.6351C1437.18 99.6259 1438.38 100.259 1439.69 100.311C1440.58 100.346 1441.46 100.059 1441.49 99.4152C1441.52 98.6061 1439.94 97.831 1438.43 97.0878C1436.47 96.1514 1434.82 94.7778 1434.91 92.4091C1435.02 89.6895 1437.68 87.8518 1440.66 87.9696C1443.06 88.0644 1444.89 89.269 1445.44 90.8432L1442.94 93.068C1442.5 92.221 1441.31 91.8126 1440.56 91.7829C1439.7 91.749 1439.07 92.1634 1439.05 92.6995C1439.02 93.4209 1440.12 93.6987 1441.79 94.4773C1444.21 95.6076 1445.77 97.1731 1445.68 99.4931C1445.56 102.486 1442.7 104.237 1439.55 104.113ZM1457.49 104.607L1456.77 102.743L1450.9 102.511L1450.03 104.312L1445.47 104.132L1453.4 88.512L1455.38 88.5902L1462.06 104.787L1457.49 104.607ZM1452.34 99.5121L1455.57 99.6395L1454.1 95.8524L1452.34 99.5121Z" fill="white"/>
<path d="M1493.42 106.378C1488.99 106.203 1484.98 102.764 1485.17 97.8314C1485.35 93.1817 1489.26 89.7529 1494.15 89.9463C1496.18 90.0556 1498.32 91.0286 1499.87 92.5543L1497.35 95.5398C1496.42 94.6244 1495.16 93.9988 1494 93.953C1491.59 93.8575 1489.49 95.6201 1489.4 98.0278C1489.3 100.465 1491.34 102.342 1493.58 102.43C1494.9 102.482 1496.1 101.905 1497.15 101.038L1499.4 104.3C1497.85 105.606 1495.81 106.472 1493.42 106.378ZM1501.1 106.33L1501.72 90.6164L1505.89 90.7812L1505.27 106.495L1501.1 106.33ZM1519.38 91.3142L1519.23 95.2133L1515.47 95.0647L1515 106.879L1510.82 106.714L1511.29 94.8995L1507.51 94.7504L1507.67 90.8513L1519.38 91.3142Z" fill="white"/>
<path d="M1473.85 99.3598C1472.43 99.3036 1471.31 98.1757 1471.36 96.8306C1471.42 95.5146 1472.64 94.4597 1474.04 94.5152C1475.44 94.5702 1476.57 95.7281 1476.52 97.0343C1476.47 98.36 1475.25 99.4153 1473.85 99.3598Z" fill="white"/>
<path d="M1579.2 92.4331L1580.88 92.4993L1580.25 108.359L1576.08 108.194L1576.33 101.965L1571.86 107.764L1571.83 107.763L1567.83 101.629L1567.58 107.858L1563.41 107.693L1564.03 91.8338L1565.71 91.9L1572.09 101.407L1579.2 92.4331ZM1587.31 104.713L1593.32 104.951L1593.17 108.869L1582.98 108.467L1583.6 92.7534L1587.77 92.9182L1587.31 104.713ZM1599.85 109.348C1597.26 109.246 1594.96 108.013 1594.24 106.246L1596.86 103.87C1597.48 104.861 1598.67 105.494 1599.99 105.546C1600.87 105.581 1601.75 105.294 1601.78 104.65C1601.81 103.841 1600.23 103.066 1598.72 102.323C1596.76 101.386 1595.11 100.013 1595.2 97.6441C1595.31 94.9245 1597.97 93.0867 1600.95 93.2046C1603.35 93.2993 1605.18 94.504 1605.73 96.0782L1603.23 98.303C1602.8 97.456 1601.6 97.0476 1600.85 97.0179C1599.99 96.984 1599.36 97.3984 1599.34 97.9345C1599.31 98.6559 1600.41 98.9337 1602.08 99.7123C1604.5 100.843 1606.07 102.408 1605.97 104.728C1605.86 107.721 1602.99 109.472 1599.85 109.348ZM1617.78 109.842L1617.06 107.978L1611.2 107.746L1610.32 109.547L1605.76 109.367L1613.69 93.747L1615.67 93.8252L1622.35 110.022L1617.78 109.842ZM1612.63 104.747L1615.86 104.875L1614.4 101.087L1612.63 104.747Z" fill="white"/>
<path d="M1653.72 111.613C1649.28 111.438 1645.27 107.999 1645.46 103.066C1645.65 98.4167 1649.55 94.9879 1654.44 95.1813C1656.47 95.2906 1658.61 96.2636 1660.16 97.7893L1657.64 100.775C1656.71 99.8594 1655.46 99.2338 1654.3 99.188C1651.88 99.0925 1649.79 100.855 1649.69 103.263C1649.6 105.7 1651.63 107.576 1653.87 107.665C1655.19 107.717 1656.39 107.14 1657.44 106.273L1659.7 109.535C1658.14 110.841 1656.1 111.707 1653.72 111.613ZM1661.39 111.565L1662.01 95.8513L1666.18 96.0162L1665.56 111.73L1661.39 111.565ZM1679.68 96.5492L1679.52 100.448L1675.76 100.3L1675.29 112.114L1671.11 111.949L1671.58 100.134L1667.8 99.9854L1667.96 96.0863L1679.68 96.5492Z" fill="white"/>
<path d="M1634.14 104.595C1632.72 104.539 1631.6 103.411 1631.66 102.066C1631.71 100.75 1632.93 99.6947 1634.33 99.7502C1635.73 99.8052 1636.86 100.963 1636.81 102.269C1636.76 103.595 1635.55 104.65 1634.14 104.595Z" fill="white"/>
<path d="M1739.29 99.6578L1740.97 99.724L1740.34 115.584L1736.17 115.419L1736.42 109.19L1731.95 114.988L1731.92 114.987L1727.92 108.854L1727.67 115.083L1723.5 114.918L1724.12 99.0585L1725.8 99.1247L1732.18 108.632L1739.29 99.6578ZM1747.4 111.938L1753.41 112.175L1753.26 116.094L1743.07 115.691L1743.69 99.9781L1747.86 100.143L1747.4 111.938ZM1759.94 116.573C1757.35 116.471 1755.05 115.237 1754.33 113.471L1756.95 111.095C1757.57 112.086 1758.76 112.719 1760.08 112.771C1760.96 112.806 1761.84 112.518 1761.87 111.875C1761.9 111.066 1760.32 110.291 1758.81 109.548C1756.85 108.611 1755.2 107.238 1755.29 104.869C1755.4 102.149 1758.06 100.311 1761.04 100.429C1763.44 100.524 1765.27 101.729 1765.82 103.303L1763.32 105.528C1762.89 104.681 1761.69 104.272 1760.94 104.243C1760.08 104.209 1759.45 104.623 1759.43 105.159C1759.4 105.881 1760.5 106.158 1762.17 106.937C1764.59 108.067 1766.16 109.633 1766.06 111.953C1765.95 114.945 1763.08 116.697 1759.94 116.573ZM1777.87 117.066L1777.15 115.203L1771.29 114.971L1770.41 116.772L1765.85 116.592L1773.78 100.972L1775.76 101.05L1782.44 117.247L1777.87 117.066ZM1772.72 111.972L1775.95 112.099L1774.49 108.312L1772.72 111.972Z" fill="white"/>
<path d="M1813.81 118.838C1809.37 118.662 1805.36 115.223 1805.55 110.291C1805.74 105.641 1809.64 102.213 1814.53 102.406C1816.56 102.515 1818.7 103.488 1820.25 105.014L1817.73 108C1816.8 107.084 1815.55 106.459 1814.39 106.413C1811.97 106.317 1809.88 108.08 1809.78 110.488C1809.69 112.924 1811.72 114.801 1813.96 114.89C1815.28 114.942 1816.48 114.365 1817.53 113.498L1819.79 116.76C1818.23 118.065 1816.19 118.932 1813.81 118.838ZM1821.48 118.789L1822.1 103.076L1826.27 103.241L1825.65 118.954L1821.48 118.789ZM1839.77 103.774L1839.61 107.673L1835.85 107.524L1835.38 119.339L1831.2 119.173L1831.67 107.359L1827.89 107.21L1828.05 103.311L1839.77 103.774Z" fill="white"/>
<path d="M1794.23 111.82C1792.81 111.763 1791.69 110.635 1791.75 109.29C1791.8 107.974 1793.02 106.919 1794.42 106.975C1795.82 107.03 1796.95 108.188 1796.9 109.494C1796.85 110.82 1795.64 111.875 1794.23 111.82Z" fill="white"/>
<path d="M1898.59 104.792L1900.27 104.858L1899.64 120.718L1895.47 120.553L1895.71 114.324L1891.25 120.122L1891.22 120.121L1887.21 113.988L1886.97 120.217L1882.8 120.052L1883.42 104.192L1885.1 104.259L1891.48 113.766L1898.59 104.792ZM1906.7 117.072L1912.71 117.309L1912.55 121.228L1902.37 120.825L1902.99 105.112L1907.16 105.277L1906.7 117.072ZM1919.23 121.706C1916.65 121.604 1914.35 120.371 1913.63 118.605L1916.25 116.229C1916.86 117.219 1918.06 117.852 1919.37 117.904C1920.26 117.94 1921.14 117.652 1921.17 117.009C1921.2 116.2 1919.62 115.425 1918.11 114.681C1916.15 113.745 1914.5 112.371 1914.59 110.003C1914.7 107.283 1917.36 105.445 1920.34 105.563C1922.74 105.658 1924.56 106.863 1925.12 108.437L1922.62 110.662C1922.18 109.815 1920.99 109.406 1920.24 109.376C1919.38 109.343 1918.75 109.757 1918.73 110.293C1918.7 111.014 1919.8 111.292 1921.47 112.071C1923.88 113.201 1925.45 114.767 1925.36 117.087C1925.24 120.079 1922.38 121.831 1919.23 121.706ZM1937.17 122.2L1936.45 120.337L1930.58 120.105L1929.71 121.906L1925.15 121.725L1933.08 106.106L1935.06 106.184L1941.74 122.381L1937.17 122.2ZM1932.02 117.106L1935.25 117.233L1933.78 113.446L1932.02 117.106Z" fill="white"/>
</g>
<defs>
<linearGradient id="paint0_linear_1_688" x1="1948.11" y1="73.9542" x2="-1.78549e-07" y2="4.70336e-06" gradientUnits="userSpaceOnUse">
<stop stop-color="#0F0063"/>
<stop offset="0.433106" stop-color="#170099"/>
<stop offset="1" stop-color="#080033"/>
</linearGradient>
<clipPath id="clip0_1_688">
<rect width="1948.11" height="73.9542" fill="white" transform="translate(2.91968 0.982422) rotate(2.26266)"/>
</clipPath>
</defs>
</svg>
