<svg width="453" height="148" viewBox="0 0 453 148" fill="none" xmlns="http://www.w3.org/2000/svg">
<rect width="453" height="148" rx="47" fill="#2E2E2E"/>
<circle cx="392" cy="72" r="30" fill="black"/>
<path d="M51.5455 65.5455C51.4091 64.3939 50.8561 63.5 49.8864 62.8636C48.9167 62.2273 47.7273 61.9091 46.3182 61.9091C45.2879 61.9091 44.3864 62.0758 43.6136 62.4091C42.8485 62.7424 42.25 63.2008 41.8182 63.7841C41.3939 64.3674 41.1818 65.0303 41.1818 65.7727C41.1818 66.3939 41.3295 66.928 41.625 67.375C41.928 67.8144 42.3144 68.1818 42.7841 68.4773C43.2538 68.7652 43.7462 69.0038 44.2614 69.1932C44.7765 69.375 45.25 69.5227 45.6818 69.6364L48.0455 70.2727C48.6515 70.4318 49.3258 70.6515 50.0682 70.9318C50.8182 71.2121 51.5341 71.5947 52.2159 72.0795C52.9053 72.5568 53.4735 73.1705 53.9205 73.9205C54.3674 74.6705 54.5909 75.5909 54.5909 76.6818C54.5909 77.9394 54.2614 79.0758 53.6023 80.0909C52.9508 81.1061 51.9962 81.9129 50.7386 82.5114C49.4886 83.1098 47.9697 83.4091 46.1818 83.4091C44.5152 83.4091 43.072 83.1402 41.8523 82.6023C40.6402 82.0644 39.6856 81.3144 38.9886 80.3523C38.2992 79.3902 37.9091 78.2727 37.8182 77H40.7273C40.803 77.8788 41.0985 78.6061 41.6136 79.1818C42.1364 79.75 42.7955 80.1742 43.5909 80.4545C44.3939 80.7273 45.2576 80.8636 46.1818 80.8636C47.2576 80.8636 48.2235 80.6894 49.0795 80.3409C49.9356 79.9848 50.6136 79.4924 51.1136 78.8636C51.6136 78.2273 51.8636 77.4848 51.8636 76.6364C51.8636 75.8636 51.6477 75.2348 51.2159 74.75C50.7841 74.2652 50.2159 73.8712 49.5114 73.5682C48.8068 73.2652 48.0455 73 47.2273 72.7727L44.3636 71.9545C42.5455 71.4318 41.1061 70.6856 40.0455 69.7159C38.9848 68.7462 38.4545 67.4773 38.4545 65.9091C38.4545 64.6061 38.8068 63.4697 39.5114 62.5C40.2235 61.5227 41.178 60.7652 42.375 60.2273C43.5795 59.6818 44.9242 59.4091 46.4091 59.4091C47.9091 59.4091 49.2424 59.678 50.4091 60.2159C51.5758 60.7462 52.5 61.4735 53.1818 62.3977C53.8712 63.322 54.2348 64.3712 54.2727 65.5455H51.5455ZM59.2244 83V59.7273H62.0426V70.0909H74.4517V59.7273H77.2699V83H74.4517V72.5909H62.0426V83H59.2244ZM83.8665 83H80.9119L89.4574 59.7273H92.3665L100.912 83H97.9574L91.0028 63.4091H90.821L83.8665 83ZM84.9574 73.9091H96.8665V76.4091H84.9574V73.9091ZM104.537 83V59.7273H112.401C114.219 59.7273 115.711 60.0379 116.878 60.6591C118.045 61.2727 118.908 62.1174 119.469 63.1932C120.029 64.2689 120.31 65.4924 120.31 66.8636C120.31 68.2348 120.029 69.4508 119.469 70.5114C118.908 71.572 118.048 72.4053 116.889 73.0114C115.73 73.6098 114.249 73.9091 112.446 73.9091H106.082V71.3636H112.355C113.598 71.3636 114.598 71.1818 115.355 70.8182C116.12 70.4545 116.673 69.9394 117.014 69.2727C117.363 68.5985 117.537 67.7955 117.537 66.8636C117.537 65.9318 117.363 65.1174 117.014 64.4205C116.666 63.7235 116.109 63.1856 115.344 62.8068C114.579 62.4205 113.567 62.2273 112.31 62.2273H107.355V83H104.537ZM115.491 72.5455L121.219 83H117.946L112.31 72.5455H115.491ZM125.006 83V59.7273H139.051V62.2273H127.824V70.0909H138.324V72.5909H127.824V80.5H139.233V83H125.006ZM155.949 59.7273V83H153.131V59.7273H155.949ZM160.327 62.2273V59.7273H177.781V62.2273H170.463V83H167.645V62.2273H160.327Z" fill="white"/>
<path d="M399.354 72.3536C399.549 72.1583 399.549 71.8417 399.354 71.6464L396.172 68.4645C395.976 68.2692 395.66 68.2692 395.464 68.4645C395.269 68.6597 395.269 68.9763 395.464 69.1716L398.293 72L395.464 74.8284C395.269 75.0237 395.269 75.3403 395.464 75.5355C395.66 75.7308 395.976 75.7308 396.172 75.5355L399.354 72.3536ZM385 72.5H399V71.5H385V72.5Z" fill="white" fill-opacity="0.67"/>
</svg>
